<?xml version="1.0" encoding="UTF-8" standalone="no"?>
<svg xmlns="http://www.w3.org/2000/svg" version="1.1" width="544" height="295">
	<g transform="scale(4) translate(0, 73.7) scale(1, -1)">
		<path d="m 8.203,67.551 c -0.187,0.375 -0.469,0.64 -0.922,0.64 -1.172,0 -2.406,-1.453 -2.406,-2.906 0,-0.937 0.547,-1.594 1.328,-1.594 0.203,0 0.703,0.047 1.297,0.75 0.078,-0.421 0.422,-0.75 0.906,-0.75 0.344,0 0.578,0.235 0.735,0.547 0.172,0.36 0.297,0.969 0.297,0.985 0,0.093 -0.094,0.093 -0.125,0.093 -0.094,0 -0.11,-0.031 -0.125,-0.171 -0.172,-0.641 -0.36,-1.235 -0.766,-1.235 -0.266,0 -0.297,0.266 -0.297,0.453 0,0.219 0.016,0.297 0.125,0.735 0.109,0.422 0.141,0.515 0.219,0.906 l 0.359,1.391 c 0.078,0.265 0.078,0.296 0.078,0.328 0,0.172 -0.125,0.265 -0.297,0.265 -0.234,0 -0.39,-0.218 -0.406,-0.437 z M 7.547,64.988 C 7.5,64.801 7.5,64.785 7.344,64.613 6.906,64.066 6.5,63.91 6.219,63.91 c -0.485,0 -0.625,0.547 -0.625,0.938 0,0.5 0.312,1.718 0.547,2.172 0.297,0.578 0.75,0.953 1.156,0.953 0.641,0 0.781,-0.813 0.781,-0.875 0,-0.063 -0.015,-0.125 -0.031,-0.172 l -0.5,-1.938 z" />
		<path d="m 12.109,66.773 c 0,0.188 -0.015,0.204 -0.218,0.204 -0.438,-0.454 -1.078,-0.454 -1.375,-0.454 l 0,-0.25 c 0.172,0 0.64,0 1.015,0.188 l 0,-3.578 c 0,-0.235 0,-0.328 -0.703,-0.328 l -0.265,0 0,-0.25 c 0.125,0 1,0.031 1.25,0.031 0.218,0 1.109,-0.031 1.265,-0.031 l 0,0.25 -0.265,0 c -0.704,0 -0.704,0.093 -0.704,0.328 l 0,3.89 z m 3.969,0 c 0,0.188 -0.015,0.204 -0.219,0.204 -0.437,-0.454 -1.078,-0.454 -1.375,-0.454 l 0,-0.25 c 0.172,0 0.641,0 1.016,0.188 l 0,-3.578 c 0,-0.235 0,-0.328 -0.703,-0.328 l -0.266,0 0,-0.25 c 0.125,0 1,0.031 1.25,0.031 0.219,0 1.11,-0.031 1.266,-0.031 l 0,0.25 -0.266,0 c -0.703,0 -0.703,0.093 -0.703,0.328 l 0,3.89 z" />
		<path d="m 36.551,67.551 c -0.188,0.375 -0.469,0.64 -0.922,0.64 -1.172,0 -2.406,-1.453 -2.406,-2.906 0,-0.937 0.547,-1.594 1.328,-1.594 0.203,0 0.703,0.047 1.297,0.75 0.078,-0.421 0.422,-0.75 0.906,-0.75 0.344,0 0.578,0.235 0.734,0.547 0.172,0.36 0.297,0.969 0.297,0.985 0,0.093 -0.094,0.093 -0.125,0.093 -0.094,0 -0.109,-0.031 -0.125,-0.171 -0.172,-0.641 -0.359,-1.235 -0.765,-1.235 -0.266,0 -0.297,0.266 -0.297,0.453 0,0.219 0.015,0.297 0.125,0.735 0.109,0.422 0.14,0.515 0.218,0.906 l 0.36,1.391 c 0.078,0.265 0.078,0.296 0.078,0.328 0,0.172 -0.125,0.265 -0.297,0.265 -0.234,0 -0.391,-0.218 -0.406,-0.437 z m -0.656,-2.563 c -0.047,-0.187 -0.047,-0.203 -0.204,-0.375 -0.437,-0.547 -0.843,-0.703 -1.125,-0.703 -0.484,0 -0.625,0.547 -0.625,0.938 0,0.5 0.313,1.718 0.547,2.172 0.297,0.578 0.75,0.953 1.157,0.953 0.64,0 0.781,-0.813 0.781,-0.875 0,-0.063 -0.016,-0.125 -0.031,-0.172 l -0.5,-1.938 z" />
		<path d="m 40.457,66.773 c 0,0.188 -0.016,0.204 -0.219,0.204 -0.437,-0.454 -1.078,-0.454 -1.375,-0.454 l 0,-0.25 c 0.172,0 0.641,0 1.016,0.188 l 0,-3.578 c 0,-0.235 0,-0.328 -0.703,-0.328 l -0.266,0 0,-0.25 c 0.125,0 1,0.031 1.25,0.031 0.219,0 1.11,-0.031 1.266,-0.031 l 0,0.25 -0.266,0 c -0.703,0 -0.703,0.093 -0.703,0.328 l 0,3.89 z m 5.172,-3.187 -0.25,0 C 45.363,63.43 45.285,63.008 45.207,62.945 45.145,62.898 44.598,62.898 44.504,62.898 l -1.297,0 c 0.734,0.657 0.984,0.86 1.406,1.188 0.516,0.406 1.016,0.844 1.016,1.516 0,0.843 -0.75,1.375 -1.656,1.375 -0.875,0 -1.469,-0.61 -1.469,-1.266 0,-0.359 0.312,-0.391 0.375,-0.391 0.172,0 0.375,0.125 0.375,0.375 0,0.125 -0.047,0.375 -0.406,0.375 0.218,0.5 0.687,0.657 1.015,0.657 0.703,0 1.078,-0.563 1.078,-1.125 0,-0.61 -0.437,-1.094 -0.671,-1.344 l -1.688,-1.672 c -0.078,-0.078 -0.078,-0.078 -0.078,-0.281 l 2.906,0 0.219,1.281 z" />
		<path d="m 8.203,39.203 c -0.187,0.375 -0.469,0.641 -0.922,0.641 -1.172,0 -2.406,-1.453 -2.406,-2.906 0,-0.938 0.547,-1.594 1.328,-1.594 0.203,0 0.703,0.047 1.297,0.75 0.078,-0.422 0.422,-0.75 0.906,-0.75 0.344,0 0.578,0.234 0.735,0.547 0.172,0.359 0.297,0.968 0.297,0.984 0,0.094 -0.094,0.094 -0.125,0.094 -0.094,0 -0.11,-0.031 -0.125,-0.172 -0.172,-0.641 -0.36,-1.234 -0.766,-1.234 -0.266,0 -0.297,0.265 -0.297,0.453 0,0.218 0.016,0.297 0.125,0.734 0.109,0.422 0.141,0.516 0.219,0.906 l 0.359,1.391 c 0.078,0.266 0.078,0.297 0.078,0.328 0,0.172 -0.125,0.266 -0.297,0.266 -0.234,0 -0.39,-0.219 -0.406,-0.438 z M 7.547,36.641 C 7.5,36.453 7.5,36.438 7.344,36.266 6.906,35.719 6.5,35.563 6.219,35.563 c -0.485,0 -0.625,0.546 -0.625,0.937 0,0.5 0.312,1.719 0.547,2.172 0.297,0.578 0.75,0.953 1.156,0.953 0.641,0 0.781,-0.812 0.781,-0.875 0,-0.062 -0.015,-0.125 -0.031,-0.172 l -0.5,-1.937 z" />
		<path d="m 13.313,35.242 -0.25,0 c -0.016,-0.156 -0.094,-0.578 -0.172,-0.64 -0.063,-0.047 -0.61,-0.047 -0.703,-0.047 l -1.297,0 c 0.734,0.656 0.984,0.859 1.406,1.187 0.516,0.406 1.016,0.844 1.016,1.516 0,0.844 -0.75,1.375 -1.657,1.375 -0.875,0 -1.468,-0.61 -1.468,-1.266 0,-0.359 0.312,-0.39 0.375,-0.39 0.171,0 0.375,0.125 0.375,0.375 0,0.125 -0.047,0.375 -0.407,0.375 0.219,0.5 0.688,0.656 1.016,0.656 0.703,0 1.078,-0.563 1.078,-1.125 0,-0.61 -0.437,-1.094 -0.672,-1.344 l -1.687,-1.672 c -0.078,-0.078 -0.078,-0.078 -0.078,-0.281 l 2.906,0 0.219,1.281 z m 2.765,3.188 c 0,0.187 -0.015,0.203 -0.219,0.203 C 15.422,38.18 14.781,38.18 14.484,38.18 l 0,-0.25 c 0.172,0 0.641,0 1.016,0.187 l 0,-3.578 c 0,-0.234 0,-0.328 -0.703,-0.328 l -0.266,0 0,-0.25 c 0.125,0 1,0.031 1.25,0.031 0.219,0 1.11,-0.031 1.266,-0.031 l 0,0.25 -0.266,0 c -0.703,0 -0.703,0.094 -0.703,0.328 l 0,3.891 z" />
		<path d="m 36.551,39.203 c -0.188,0.375 -0.469,0.641 -0.922,0.641 -1.172,0 -2.406,-1.453 -2.406,-2.906 0,-0.938 0.547,-1.594 1.328,-1.594 0.203,0 0.703,0.047 1.297,0.75 0.078,-0.422 0.422,-0.75 0.906,-0.75 0.344,0 0.578,0.234 0.734,0.547 0.172,0.359 0.297,0.968 0.297,0.984 0,0.094 -0.094,0.094 -0.125,0.094 -0.094,0 -0.109,-0.031 -0.125,-0.172 -0.172,-0.641 -0.359,-1.234 -0.765,-1.234 -0.266,0 -0.297,0.265 -0.297,0.453 0,0.218 0.015,0.297 0.125,0.734 0.109,0.422 0.14,0.516 0.218,0.906 l 0.36,1.391 c 0.078,0.266 0.078,0.297 0.078,0.328 0,0.172 -0.125,0.266 -0.297,0.266 -0.234,0 -0.391,-0.219 -0.406,-0.438 z m -0.656,-2.562 c -0.047,-0.188 -0.047,-0.203 -0.204,-0.375 -0.437,-0.547 -0.843,-0.703 -1.125,-0.703 -0.484,0 -0.625,0.546 -0.625,0.937 0,0.5 0.313,1.719 0.547,2.172 0.297,0.578 0.75,0.953 1.157,0.953 0.64,0 0.781,-0.812 0.781,-0.875 0,-0.062 -0.016,-0.125 -0.031,-0.172 l -0.5,-1.937 z" />
		<path d="m 41.66,35.242 -0.25,0 c -0.015,-0.156 -0.094,-0.578 -0.172,-0.64 -0.062,-0.047 -0.609,-0.047 -0.703,-0.047 l -1.297,0 c 0.735,0.656 0.985,0.859 1.407,1.187 0.515,0.406 1.015,0.844 1.015,1.516 0,0.844 -0.75,1.375 -1.656,1.375 -0.875,0 -1.469,-0.61 -1.469,-1.266 0,-0.359 0.313,-0.39 0.375,-0.39 0.172,0 0.375,0.125 0.375,0.375 0,0.125 -0.047,0.375 -0.406,0.375 0.219,0.5 0.687,0.656 1.016,0.656 0.703,0 1.078,-0.563 1.078,-1.125 0,-0.61 -0.438,-1.094 -0.672,-1.344 l -1.688,-1.672 c -0.078,-0.078 -0.078,-0.078 -0.078,-0.281 l 2.906,0 0.219,1.281 z m 3.969,0 -0.25,0 c -0.016,-0.156 -0.094,-0.578 -0.172,-0.64 -0.062,-0.047 -0.609,-0.047 -0.703,-0.047 l -1.297,0 c 0.734,0.656 0.984,0.859 1.406,1.187 0.516,0.406 1.016,0.844 1.016,1.516 0,0.844 -0.75,1.375 -1.656,1.375 -0.875,0 -1.469,-0.61 -1.469,-1.266 0,-0.359 0.312,-0.39 0.375,-0.39 0.172,0 0.375,0.125 0.375,0.375 0,0.125 -0.047,0.375 -0.406,0.375 0.218,0.5 0.687,0.656 1.015,0.656 0.703,0 1.078,-0.563 1.078,-1.125 0,-0.61 -0.437,-1.094 -0.671,-1.344 l -1.688,-1.672 c -0.078,-0.078 -0.078,-0.078 -0.078,-0.281 l 2.906,0 0.219,1.281 z" />
		<path d="M 17.848,58.688 33.176,43.363 M "
			style="stroke:#ff0000;stroke-width:0.59776002;stroke-linecap:butt;stroke-linejoin:miter;stroke-miterlimit:10;stroke-opacity:1;stroke-dasharray:none" />
		<path d="M 17.848,43.363 33.176,58.688 M"
			style="fill:none;stroke:#0000ff;stroke-width:0.59776002;stroke-linecap:butt;stroke-linejoin:miter;stroke-miterlimit:10;stroke-opacity:1;stroke-dasharray:none" />
	</g>
</svg>
