<?xml version="1.0" encoding="UTF-8" standalone="no"?>
<!-- Created with Serif DrawPlus 11, 0, 3, 23 (Feb 25, 14:12:55) (http://www.serif.com) -->
<svg version="1.1" xmlns="http://www.w3.org/2000/svg" xmlns:xlink="http://www.w3.org/1999/xlink" width="392.416" height="476.623">
	<g id="dp_group001" transform="matrix(1,0,0,1,-123.039,-306.432)">
		<g id="dp_group002">
			<g id="dp_group003">
				<path id="dp_path004" fill="black" fill-rule="evenodd" d="M 275.276,594.249 L 276.315,592.54 L 280.101,590.16 L 269.813,589.761 L 274.909,598.707 Z "/>
				<path id="dp_path005" fill="black" d="M 462.519,705.665 L 276.315,592.54 L 275.277,594.249 L 461.481,707.375 Z "/>
			</g>
		</g>
		<text id="dp_text001" transform="matrix(1,0,0,1,251.6,590.913)" xml:space="preserve" fill="black" font-family="Arial" font-size="19" font-weight="700" x="0" y="0">x</text>
		<g id="dp_group007">
			<g id="dp_group008">
				<path id="dp_path009" fill="#8400b5" fill-rule="evenodd" d="M 268.231,594.524 L 269.549,594.721 L 272.187,595.116 L 269.877,588.029 L 265.593,594.129 Z "/>
				<path id="dp_path010" fill="#8400b5" d="M 281.972,706.327 L 281.391,704.391 L 280.819,702.455 L 280.26,700.521 L 279.713,698.589 L 279.177,696.657 L 278.651,694.727 L 278.137,692.799 L 277.636,690.872 L 277.144,688.945 L 276.665,687.021 L 276.199,685.099 L 275.743,683.177 L 275.299,681.259 L 274.868,679.343 L 274.448,677.428 L 274.041,675.516 L 273.645,673.607 L 273.264,671.699 L 272.895,669.793 L 272.536,667.889 L 272.361,666.94 L 272.192,665.992 L 272.024,665.041 L 271.859,664.095 L 271.699,663.145 L 271.54,662.2 L 271.384,661.253 L 271.232,660.308 L 271.085,659.364 L 270.94,658.42 L 270.797,657.477 L 270.659,656.536 L 270.524,655.593 L 270.392,654.653 L 270.263,653.713 L 270.137,652.775 L 270.015,651.837 L 269.897,650.9 L 269.781,649.963 L 269.669,649.028 L 269.56,648.093 L 269.455,647.16 L 269.355,646.227 L 269.256,645.296 L 269.16,644.364 L 269.068,643.435 L 268.98,642.505 L 268.896,641.579 L 268.815,640.652 L 268.737,639.725 L 268.663,638.8 L 268.592,637.876 L 268.524,636.953 L 268.46,636.032 L 268.4,635.112 L 268.344,634.192 L 268.291,633.275 L 268.241,632.356 L 268.195,631.44 L 268.152,630.524 L 268.113,629.611 L 268.077,628.697 L 268.047,627.785 L 268.019,626.876 L 267.993,625.967 L 267.973,625.057 L 267.956,624.151 L 267.943,623.245 L 267.932,622.34 L 267.927,621.437 L 267.925,620.535 L 267.925,619.633 L 267.931,618.733 L 267.939,617.835 L 267.952,616.939 L 267.968,616.043 L 267.988,615.149 L 268.012,614.256 L 268.04,613.364 L 268.071,612.473 L 268.107,611.584 L 268.145,610.696 L 268.188,609.811 L 268.235,608.925 L 268.285,608.043 L 268.339,607.16 L 268.397,606.28 L 268.46,605.401 L 268.527,604.523 L 268.596,603.647 L 268.671,602.773 L 268.747,601.9 L 268.829,601.027 L 268.915,600.157 L 269.005,599.289 L 269.099,598.421 L 269.195,597.556 L 269.297,596.692 L 269.403,595.829 L 269.512,594.975 L 269.551,594.72 L 268.231,594.525 L 268.192,594.793 L 268.08,595.667 L 267.975,596.535 L 267.872,597.404 L 267.773,598.277 L 267.68,599.151 L 267.589,600.024 L 267.504,600.901 L 267.421,601.78 L 267.343,602.659 L 267.268,603.54 L 267.199,604.421 L 267.132,605.305 L 267.069,606.189 L 267.011,607.077 L 266.955,607.965 L 266.904,608.853 L 266.857,609.744 L 266.815,610.637 L 266.776,611.531 L 266.74,612.425 L 266.709,613.321 L 266.681,614.219 L 266.657,615.117 L 266.637,616.016 L 266.621,616.917 L 266.608,617.821 L 266.6,618.725 L 266.595,619.631 L 266.592,620.535 L 266.596,621.443 L 266.601,622.351 L 266.612,623.261 L 266.625,624.172 L 266.643,625.084 L 266.663,625.999 L 266.688,626.913 L 266.716,627.828 L 266.747,628.745 L 266.783,629.664 L 266.821,630.583 L 266.864,631.504 L 266.911,632.425 L 266.96,633.347 L 267.013,634.269 L 267.072,635.195 L 267.132,636.12 L 267.196,637.047 L 267.264,637.975 L 267.335,638.904 L 267.409,639.832 L 267.487,640.764 L 267.568,641.696 L 267.655,642.628 L 267.743,643.563 L 267.835,644.497 L 267.931,645.432 L 268.029,646.368 L 268.132,647.304 L 268.237,648.243 L 268.347,649.183 L 268.459,650.123 L 268.575,651.063 L 268.695,652.005 L 268.817,652.948 L 268.943,653.892 L 269.072,654.835 L 269.204,655.78 L 269.341,656.725 L 269.48,657.672 L 269.623,658.62 L 269.768,659.567 L 269.917,660.516 L 270.069,661.467 L 270.225,662.416 L 270.384,663.367 L 270.547,664.319 L 270.712,665.271 L 270.88,666.224 L 271.052,667.177 L 271.227,668.132 L 271.585,670.041 L 271.957,671.955 L 272.341,673.871 L 272.737,675.788 L 273.147,677.708 L 273.567,679.631 L 274,681.555 L 274.447,683.481 L 274.903,685.408 L 275.372,687.339 L 275.853,689.271 L 276.345,691.203 L 276.849,693.137 L 277.365,695.073 L 277.892,697.009 L 278.431,698.947 L 278.98,700.887 L 279.541,702.828 L 280.113,704.769 L 280.695,706.711 Z "/>
			</g>
		</g>
		<path id="dp_path015" fill="none" fill-rule="evenodd" stroke="#d10003" stroke-width="1.33333" stroke-dasharray="8,6.4" d="M 247,763.519 L 270.035,588.071"/>
		<g id="dp_group036">
			<g id="dp_group037">
				<path id="dp_path038" fill="#8400b5" fill-rule="evenodd" d="M 339.161,487.793 L 339.8,488.964 L 341.077,491.304 L 345.333,485.185 L 337.884,485.452 Z "/>
				<path id="dp_path039" fill="#8400b5" d="M 270.535,588.143 L 270.707,587.14 L 270.885,586.143 L 271.071,585.147 L 271.261,584.155 L 271.457,583.164 L 271.66,582.176 L 271.867,581.191 L 272.081,580.207 L 272.301,579.228 L 272.527,578.248 L 272.759,577.273 L 272.996,576.301 L 273.239,575.331 L 273.488,574.363 L 273.743,573.397 L 274.005,572.435 L 274.273,571.475 L 274.547,570.517 L 274.825,569.563 L 275.111,568.612 L 275.403,567.663 L 275.7,566.716 L 276.004,565.775 L 276.315,564.833 L 276.631,563.895 L 276.953,562.96 L 277.281,562.027 L 277.616,561.099 L 277.957,560.172 L 278.305,559.248 L 278.659,558.327 L 279.017,557.411 L 279.384,556.495 L 279.757,555.583 L 280.136,554.675 L 280.521,553.769 L 280.913,552.865 L 281.311,551.965 L 281.715,551.069 L 282.127,550.176 L 282.544,549.285 L 282.967,548.399 L 283.397,547.515 L 283.835,546.632 L 284.277,545.755 L 284.727,544.88 L 285.184,544.009 L 285.647,543.14 L 286.116,542.276 L 286.592,541.413 L 287.075,540.555 L 287.564,539.701 L 288.061,538.849 L 288.564,538 L 289.073,537.155 L 289.589,536.313 L 290.113,535.475 L 290.643,534.64 L 291.18,533.808 L 291.723,532.98 L 292.272,532.156 L 292.829,531.335 L 293.393,530.517 L 293.964,529.703 L 294.543,528.892 L 295.125,528.085 L 295.717,527.281 L 296.316,526.483 L 296.921,525.687 L 297.533,524.893 L 298.153,524.105 L 298.779,523.32 L 299.413,522.539 L 300.053,521.76 L 300.701,520.987 L 301.355,520.216 L 302.017,519.449 L 302.687,518.687 L 303.363,517.927 L 304.045,517.171 L 304.736,516.42 L 305.433,515.673 L 306.139,514.929 L 306.849,514.189 L 307.571,513.453 L 308.296,512.721 L 309.029,511.993 L 309.771,511.271 L 310.52,510.549 L 311.276,509.833 L 312.039,509.121 L 312.809,508.413 L 313.588,507.711 L 314.375,507.009 L 315.167,506.315 L 315.967,505.623 L 316.775,504.936 L 317.591,504.252 L 318.413,503.572 L 319.244,502.897 L 320.081,502.227 L 320.929,501.56 L 321.781,500.899 L 322.643,500.24 L 323.511,499.585 L 324.388,498.936 L 325.271,498.291 L 326.163,497.651 L 327.063,497.015 L 327.969,496.383 L 328.884,495.755 L 329.807,495.132 L 330.737,494.513 L 331.675,493.899 L 332.621,493.289 L 333.575,492.683 L 334.536,492.081 L 335.507,491.485 L 336.484,490.893 L 337.469,490.307 L 338.463,489.725 L 339.459,489.149 L 339.8,488.964 L 339.163,487.793 L 338.808,487.987 L 337.793,488.573 L 336.792,489.16 L 335.799,489.752 L 334.813,490.349 L 333.835,490.951 L 332.865,491.557 L 331.904,492.167 L 330.949,492.781 L 330.004,493.401 L 329.065,494.025 L 328.135,494.653 L 327.212,495.287 L 326.297,495.924 L 325.389,496.565 L 324.489,497.213 L 323.599,497.864 L 322.713,498.519 L 321.837,499.179 L 320.968,499.843 L 320.108,500.512 L 319.255,501.184 L 318.409,501.86 L 317.571,502.543 L 316.74,503.228 L 315.916,503.917 L 315.1,504.612 L 314.292,505.309 L 313.492,506.012 L 312.7,506.719 L 311.913,507.429 L 311.135,508.145 L 310.364,508.863 L 309.6,509.587 L 308.845,510.313 L 308.096,511.044 L 307.355,511.78 L 306.621,512.52 L 305.895,513.261 L 305.176,514.009 L 304.463,514.761 L 303.76,515.516 L 303.061,516.275 L 302.371,517.039 L 301.689,517.804 L 301.012,518.575 L 300.344,519.349 L 299.683,520.128 L 299.029,520.909 L 298.381,521.696 L 297.741,522.485 L 297.108,523.279 L 296.483,524.075 L 295.865,524.876 L 295.252,525.68 L 294.648,526.489 L 294.051,527.301 L 293.46,528.116 L 292.876,528.935 L 292.3,529.757 L 291.731,530.583 L 291.168,531.412 L 290.611,532.247 L 290.063,533.083 L 289.52,533.923 L 288.985,534.765 L 288.456,535.612 L 287.935,536.464 L 287.42,537.317 L 286.912,538.175 L 286.412,539.035 L 285.917,539.899 L 285.429,540.765 L 284.948,541.636 L 284.473,542.511 L 284.005,543.388 L 283.545,544.267 L 283.091,545.152 L 282.643,546.037 L 282.203,546.928 L 281.767,547.82 L 281.339,548.717 L 280.919,549.616 L 280.504,550.517 L 280.095,551.424 L 279.692,552.332 L 279.297,553.244 L 278.909,554.157 L 278.525,555.076 L 278.149,555.996 L 277.78,556.92 L 277.416,557.847 L 277.06,558.776 L 276.709,559.708 L 276.365,560.643 L 276.028,561.581 L 275.695,562.523 L 275.369,563.465 L 275.051,564.412 L 274.737,565.361 L 274.431,566.313 L 274.131,567.268 L 273.836,568.225 L 273.548,569.187 L 273.267,570.149 L 272.991,571.115 L 272.72,572.083 L 272.457,573.053 L 272.2,574.027 L 271.948,575.003 L 271.703,575.981 L 271.463,576.964 L 271.231,577.947 L 271.003,578.932 L 270.78,579.921 L 270.565,580.913 L 270.356,581.907 L 270.151,582.903 L 269.955,583.901 L 269.761,584.901 L 269.576,585.905 L 269.395,586.911 L 269.22,587.916 Z "/>
			</g>
		</g>
		<g id="dp_group040">
			<g id="dp_group041">
				<path id="dp_path042" fill="#8400b5" fill-rule="evenodd" d="M 346.541,504.127 L 346.699,502.803 L 347.011,500.155 L 339.999,502.683 L 346.229,506.775 Z "/>
				<path id="dp_path043" fill="#8400b5" d="M 345.637,485.779 L 346.557,485.305 L 347.475,484.847 L 348.393,484.399 L 349.316,483.96 L 350.237,483.532 L 351.161,483.116 L 352.087,482.711 L 353.013,482.315 L 353.939,481.929 L 354.867,481.555 L 355.793,481.191 L 356.723,480.836 L 357.649,480.492 L 358.579,480.159 L 359.505,479.833 L 360.435,479.52 L 361.361,479.215 L 362.288,478.921 L 363.213,478.636 L 364.139,478.36 L 365.061,478.096 L 365.985,477.84 L 366.905,477.593 L 367.827,477.356 L 368.745,477.128 L 369.66,476.909 L 370.576,476.7 L 371.487,476.5 L 372.397,476.309 L 373.305,476.128 L 374.209,475.955 L 375.112,475.791 L 376.011,475.636 L 376.908,475.488 L 377.801,475.351 L 378.691,475.221 L 379.577,475.1 L 380.461,474.988 L 381.339,474.883 L 382.215,474.788 L 383.084,474.7 L 383.952,474.621 L 384.813,474.551 L 385.671,474.487 L 386.523,474.432 L 387.372,474.385 L 388.216,474.345 L 389.052,474.313 L 389.884,474.289 L 390.712,474.273 L 391.533,474.265 L 392.351,474.265 L 393.16,474.271 L 393.964,474.284 L 394.76,474.305 L 395.551,474.335 L 396.336,474.369 L 397.113,474.413 L 397.884,474.461 L 398.647,474.519 L 399.404,474.583 L 400.152,474.652 L 400.895,474.731 L 401.629,474.813 L 402.355,474.903 L 403.072,475.001 L 403.783,475.104 L 404.485,475.213 L 405.177,475.329 L 405.863,475.452 L 406.54,475.58 L 407.207,475.715 L 407.864,475.856 L 408.512,476.003 L 409.153,476.155 L 409.781,476.313 L 410.401,476.477 L 411.013,476.647 L 411.613,476.823 L 412.203,477.003 L 412.783,477.189 L 413.353,477.381 L 413.912,477.579 L 414.459,477.78 L 414.996,477.988 L 415.523,478.2 L 416.036,478.417 L 416.54,478.639 L 417.031,478.865 L 417.511,479.097 L 417.98,479.333 L 418.435,479.572 L 418.879,479.819 L 419.309,480.067 L 419.728,480.32 L 420.135,480.579 L 420.528,480.84 L 420.908,481.104 L 421.275,481.373 L 421.628,481.647 L 421.968,481.921 L 422.297,482.204 L 422.455,482.344 L 422.608,482.485 L 422.76,482.628 L 422.908,482.771 L 423.053,482.916 L 423.193,483.06 L 423.331,483.207 L 423.465,483.352 L 423.595,483.499 L 423.723,483.648 L 423.845,483.796 L 423.964,483.944 L 424.081,484.095 L 424.193,484.245 L 424.303,484.397 L 424.409,484.549 L 424.508,484.699 L 424.607,484.853 L 424.703,485.009 L 424.792,485.16 L 424.88,485.316 L 424.964,485.471 L 425.043,485.627 L 425.12,485.784 L 425.193,485.94 L 425.261,486.097 L 425.327,486.256 L 425.388,486.413 L 425.447,486.572 L 425.501,486.735 L 425.552,486.893 L 425.599,487.052 L 425.641,487.213 L 425.681,487.376 L 425.717,487.539 L 425.749,487.7 L 425.777,487.865 L 425.801,488.031 L 425.824,488.196 L 425.84,488.357 L 425.853,488.523 L 425.863,488.693 L 425.869,488.859 L 425.869,489.029 L 425.869,489.2 L 425.863,489.367 L 425.853,489.539 L 425.839,489.711 L 425.823,489.88 L 425.8,490.052 L 425.775,490.227 L 425.744,490.401 L 425.712,490.572 L 425.673,490.745 L 425.632,490.919 L 425.589,491.085 L 425.54,491.252 L 425.487,491.423 L 425.432,491.588 L 425.373,491.751 L 425.309,491.912 L 425.243,492.076 L 425.173,492.236 L 425.097,492.399 L 425.021,492.557 L 424.94,492.713 L 424.856,492.871 L 424.768,493.024 L 424.675,493.179 L 424.58,493.332 L 424.48,493.485 L 424.377,493.637 L 424.272,493.787 L 424.163,493.936 L 424.048,494.084 L 423.932,494.231 L 423.811,494.377 L 423.687,494.523 L 423.559,494.665 L 423.428,494.809 L 423.293,494.951 L 423.155,495.093 L 423.015,495.231 L 422.868,495.371 L 422.72,495.508 L 422.565,495.647 L 422.411,495.783 L 422.252,495.916 L 422.091,496.049 L 421.924,496.183 L 421.755,496.315 L 421.584,496.444 L 421.227,496.703 L 420.859,496.956 L 420.476,497.207 L 420.081,497.451 L 419.675,497.692 L 419.253,497.928 L 418.82,498.161 L 418.376,498.388 L 417.919,498.611 L 417.449,498.829 L 416.968,499.044 L 416.475,499.255 L 415.969,499.46 L 415.455,499.661 L 414.928,499.859 L 414.389,500.051 L 413.84,500.239 L 413.283,500.421 L 412.711,500.603 L 412.131,500.777 L 411.54,500.947 L 410.94,501.115 L 410.331,501.277 L 409.711,501.433 L 409.08,501.588 L 408.443,501.737 L 407.796,501.883 L 407.139,502.023 L 406.472,502.16 L 405.799,502.292 L 405.116,502.421 L 404.425,502.545 L 403.725,502.665 L 403.019,502.783 L 402.304,502.895 L 401.581,503.003 L 400.851,503.107 L 400.115,503.208 L 399.371,503.303 L 398.619,503.396 L 397.861,503.485 L 397.096,503.569 L 396.325,503.651 L 395.548,503.728 L 394.764,503.801 L 393.975,503.871 L 393.18,503.936 L 392.377,503.999 L 391.571,504.057 L 390.76,504.113 L 389.943,504.163 L 389.12,504.211 L 388.293,504.255 L 387.461,504.296 L 386.627,504.333 L 385.785,504.367 L 384.941,504.397 L 384.092,504.424 L 383.239,504.447 L 382.383,504.467 L 381.523,504.484 L 380.66,504.497 L 379.793,504.507 L 378.923,504.515 L 378.051,504.517 L 377.175,504.517 L 376.297,504.516 L 375.417,504.509 L 374.536,504.5 L 373.649,504.488 L 372.764,504.473 L 371.876,504.455 L 370.095,504.409 L 368.308,504.352 L 366.519,504.283 L 364.725,504.203 L 362.932,504.112 L 361.139,504.009 L 359.345,503.897 L 357.556,503.775 L 355.771,503.641 L 353.989,503.497 L 352.216,503.344 L 350.449,503.183 L 348.691,503.011 L 346.947,502.831 L 346.696,502.801 L 346.544,504.127 L 346.803,504.156 L 348.56,504.336 L 350.324,504.508 L 352.099,504.672 L 353.88,504.825 L 355.669,504.969 L 357.463,505.103 L 359.26,505.225 L 361.061,505.34 L 362.863,505.443 L 364.664,505.533 L 366.465,505.613 L 368.263,505.683 L 370.057,505.74 L 371.847,505.785 L 372.74,505.804 L 373.631,505.819 L 374.52,505.831 L 375.407,505.84 L 376.292,505.847 L 377.175,505.851 L 378.053,505.848 L 378.931,505.845 L 379.804,505.837 L 380.676,505.828 L 381.544,505.815 L 382.409,505.797 L 383.271,505.777 L 384.129,505.755 L 384.984,505.728 L 385.833,505.697 L 386.68,505.664 L 387.523,505.627 L 388.36,505.585 L 389.192,505.541 L 390.02,505.493 L 390.845,505.441 L 391.664,505.385 L 392.476,505.327 L 393.284,505.264 L 394.087,505.199 L 394.884,505.127 L 395.673,505.053 L 396.459,504.976 L 397.237,504.895 L 398.011,504.808 L 398.776,504.719 L 399.536,504.625 L 400.288,504.528 L 401.035,504.427 L 401.773,504.32 L 402.504,504.212 L 403.229,504.097 L 403.947,503.98 L 404.655,503.857 L 405.356,503.731 L 406.049,503.601 L 406.733,503.467 L 407.411,503.327 L 408.079,503.184 L 408.739,503.036 L 409.389,502.884 L 410.031,502.727 L 410.664,502.565 L 411.289,502.4 L 411.903,502.229 L 412.507,502.055 L 413.103,501.875 L 413.688,501.691 L 414.264,501.503 L 414.829,501.307 L 415.384,501.109 L 415.929,500.907 L 416.463,500.697 L 416.987,500.484 L 417.499,500.265 L 418.001,500.043 L 418.492,499.813 L 418.971,499.58 L 419.439,499.34 L 419.893,499.096 L 420.339,498.847 L 420.772,498.589 L 421.191,498.329 L 421.6,498.063 L 421.995,497.791 L 422.376,497.513 L 422.565,497.371 L 422.748,497.228 L 422.928,497.084 L 423.105,496.94 L 423.28,496.791 L 423.451,496.641 L 423.616,496.492 L 423.78,496.341 L 423.94,496.188 L 424.099,496.032 L 424.251,495.876 L 424.401,495.719 L 424.548,495.559 L 424.692,495.397 L 424.829,495.233 L 424.967,495.071 L 425.099,494.903 L 425.227,494.736 L 425.352,494.565 L 425.473,494.395 L 425.589,494.221 L 425.703,494.049 L 425.813,493.872 L 425.917,493.696 L 426.021,493.516 L 426.119,493.335 L 426.213,493.152 L 426.303,492.967 L 426.387,492.783 L 426.469,492.596 L 426.547,492.408 L 426.621,492.217 L 426.691,492.023 L 426.756,491.828 L 426.815,491.636 L 426.872,491.44 L 426.925,491.239 L 426.972,491.041 L 427.016,490.841 L 427.056,490.636 L 427.089,490.435 L 427.12,490.233 L 427.145,490.029 L 427.167,489.828 L 427.181,489.627 L 427.193,489.428 L 427.2,489.227 L 427.203,489.029 L 427.2,488.832 L 427.193,488.632 L 427.181,488.437 L 427.168,488.24 L 427.147,488.041 L 427.121,487.847 L 427.092,487.655 L 427.059,487.463 L 427.021,487.267 L 426.977,487.075 L 426.932,486.885 L 426.881,486.697 L 426.827,486.504 L 426.765,486.316 L 426.703,486.132 L 426.636,485.947 L 426.564,485.76 L 426.488,485.577 L 426.407,485.393 L 426.323,485.211 L 426.235,485.032 L 426.143,484.852 L 426.045,484.673 L 425.947,484.496 L 425.841,484.319 L 425.735,484.147 L 425.625,483.973 L 425.508,483.797 L 425.388,483.627 L 425.268,483.459 L 425.14,483.289 L 425.012,483.123 L 424.877,482.953 L 424.739,482.789 L 424.6,482.627 L 424.455,482.461 L 424.307,482.3 L 424.156,482.14 L 424,481.98 L 423.841,481.821 L 423.68,481.665 L 423.515,481.509 L 423.345,481.355 L 423.172,481.201 L 422.821,480.9 L 422.455,480.601 L 422.075,480.309 L 421.681,480.021 L 421.277,479.739 L 420.86,479.461 L 420.429,479.189 L 419.987,478.92 L 419.532,478.659 L 419.067,478.401 L 418.588,478.149 L 418.1,477.903 L 417.599,477.66 L 417.087,477.425 L 416.564,477.193 L 416.029,476.968 L 415.484,476.748 L 414.928,476.535 L 414.363,476.325 L 413.785,476.123 L 413.199,475.925 L 412.603,475.733 L 411.995,475.545 L 411.376,475.367 L 410.751,475.192 L 410.115,475.023 L 409.468,474.861 L 408.813,474.704 L 408.149,474.555 L 407.476,474.411 L 406.793,474.273 L 406.103,474.143 L 405.404,474.017 L 404.696,473.899 L 403.98,473.787 L 403.256,473.681 L 402.525,473.583 L 401.784,473.491 L 401.039,473.405 L 400.283,473.327 L 399.521,473.255 L 398.751,473.191 L 397.975,473.133 L 397.191,473.083 L 396.4,473.039 L 395.604,473.004 L 394.8,472.975 L 393.991,472.953 L 393.176,472.94 L 392.353,472.932 L 391.528,472.935 L 390.693,472.943 L 389.855,472.959 L 389.009,472.983 L 388.16,473.015 L 387.305,473.055 L 386.445,473.101 L 385.58,473.159 L 384.712,473.223 L 383.837,473.293 L 382.959,473.375 L 382.076,473.463 L 381.189,473.56 L 380.299,473.665 L 379.404,473.78 L 378.507,473.901 L 377.604,474.033 L 376.7,474.173 L 375.792,474.321 L 374.88,474.479 L 373.967,474.645 L 373.049,474.821 L 372.131,475.005 L 371.209,475.199 L 370.285,475.401 L 369.359,475.613 L 368.431,475.835 L 367.501,476.065 L 366.569,476.305 L 365.636,476.555 L 364.701,476.813 L 363.765,477.083 L 362.829,477.361 L 361.891,477.649 L 360.953,477.948 L 360.013,478.256 L 359.073,478.575 L 358.133,478.903 L 357.193,479.241 L 356.253,479.591 L 355.313,479.948 L 354.373,480.317 L 353.435,480.697 L 352.496,481.088 L 351.559,481.489 L 350.623,481.9 L 349.685,482.321 L 348.751,482.755 L 347.817,483.199 L 346.885,483.652 L 345.955,484.119 L 345.029,484.592 Z "/>
			</g>
		</g>
		<g id="dp_group044">
			<g id="dp_group045">
				<path id="dp_path046" fill="#8400b5" fill-rule="evenodd" d="M 162.34,366.037 L 163.449,365.299 L 165.669,363.821 L 159.199,360.119 L 160.12,367.516 Z "/>
				<path id="dp_path047" fill="#8400b5" d="M 340.088,502.021 L 339.125,501.895 L 338.167,501.761 L 337.209,501.621 L 336.256,501.475 L 335.303,501.324 L 334.351,501.167 L 333.403,501.004 L 332.456,500.835 L 331.509,500.66 L 330.567,500.479 L 329.624,500.292 L 328.684,500.1 L 327.745,499.903 L 326.809,499.699 L 325.875,499.491 L 324.943,499.276 L 324.012,499.055 L 323.083,498.831 L 322.156,498.599 L 321.231,498.361 L 320.308,498.12 L 319.387,497.873 L 318.467,497.62 L 317.548,497.363 L 316.632,497.099 L 315.719,496.829 L 314.805,496.556 L 313.895,496.277 L 312.987,495.993 L 312.08,495.704 L 311.176,495.408 L 310.272,495.109 L 309.372,494.804 L 308.473,494.495 L 307.575,494.18 L 306.68,493.861 L 305.785,493.537 L 304.895,493.208 L 304.005,492.873 L 303.117,492.535 L 302.232,492.191 L 301.347,491.841 L 300.465,491.488 L 299.585,491.131 L 298.708,490.768 L 297.831,490.4 L 296.956,490.028 L 296.084,489.652 L 295.212,489.271 L 294.345,488.885 L 293.477,488.495 L 292.612,488.1 L 291.749,487.701 L 290.888,487.297 L 290.029,486.891 L 289.172,486.479 L 288.316,486.061 L 287.464,485.643 L 286.612,485.217 L 285.763,484.788 L 284.915,484.355 L 284.069,483.917 L 283.225,483.476 L 282.384,483.031 L 281.545,482.581 L 280.707,482.127 L 279.872,481.669 L 279.036,481.208 L 278.205,480.744 L 277.376,480.273 L 276.547,479.801 L 275.721,479.324 L 274.897,478.843 L 274.075,478.357 L 273.255,477.869 L 272.437,477.379 L 271.621,476.883 L 270.807,476.384 L 269.995,475.88 L 269.184,475.373 L 268.376,474.864 L 267.569,474.351 L 266.767,473.835 L 265.964,473.313 L 265.163,472.789 L 264.365,472.263 L 263.569,471.732 L 262.775,471.197 L 261.983,470.66 L 261.193,470.12 L 260.404,469.576 L 259.619,469.031 L 258.833,468.48 L 258.052,467.927 L 257.272,467.371 L 256.493,466.811 L 255.719,466.248 L 254.944,465.683 L 254.172,465.115 L 253.401,464.544 L 252.635,463.969 L 251.868,463.393 L 251.105,462.813 L 250.343,462.229 L 249.583,461.644 L 248.825,461.056 L 248.069,460.465 L 247.316,459.871 L 246.564,459.275 L 245.815,458.677 L 245.068,458.075 L 244.323,457.471 L 243.579,456.864 L 242.839,456.255 L 242.099,455.643 L 241.361,455.029 L 240.627,454.412 L 239.895,453.793 L 239.163,453.172 L 238.433,452.548 L 237.707,451.923 L 236.984,451.295 L 236.261,450.664 L 235.54,450.032 L 234.105,448.76 L 232.68,447.48 L 231.263,446.192 L 229.853,444.897 L 228.452,443.593 L 227.06,442.283 L 225.676,440.965 L 224.3,439.641 L 222.933,438.309 L 221.576,436.972 L 220.227,435.629 L 218.885,434.28 L 217.553,432.924 L 216.229,431.564 L 214.915,430.199 L 213.608,428.828 L 212.311,427.453 L 211.021,426.075 L 209.74,424.692 L 208.469,423.304 L 207.205,421.913 L 205.952,420.52 L 204.708,419.123 L 203.471,417.723 L 202.244,416.32 L 201.025,414.916 L 199.815,413.508 L 198.615,412.101 L 197.423,410.691 L 196.239,409.279 L 195.065,407.868 L 193.9,406.453 L 192.744,405.04 L 191.596,403.627 L 190.459,402.213 L 189.329,400.799 L 188.209,399.387 L 187.099,397.973 L 185.996,396.563 L 184.904,395.152 L 183.82,393.743 L 182.745,392.336 L 181.68,390.931 L 180.624,389.528 L 179.577,388.128 L 178.54,386.731 L 177.512,385.336 L 176.493,383.945 L 175.483,382.557 L 174.483,381.173 L 173.492,379.793 L 172.511,378.419 L 171.537,377.048 L 170.575,375.681 L 169.62,374.32 L 168.676,372.964 L 167.741,371.615 L 166.817,370.271 L 165.901,368.932 L 164.995,367.6 L 164.099,366.275 L 163.449,365.299 L 162.34,366.037 L 162.992,367.016 L 163.893,368.347 L 164.8,369.681 L 165.719,371.023 L 166.645,372.369 L 167.583,373.724 L 168.529,375.083 L 169.484,376.447 L 170.449,377.816 L 171.425,379.189 L 172.409,380.569 L 173.403,381.952 L 174.405,383.339 L 175.419,384.729 L 176.44,386.125 L 177.471,387.523 L 178.511,388.923 L 179.56,390.328 L 180.619,391.733 L 181.687,393.141 L 182.764,394.553 L 183.851,395.965 L 184.945,397.379 L 186.051,398.795 L 187.164,400.211 L 188.287,401.628 L 189.419,403.045 L 190.561,404.464 L 191.712,405.88 L 192.871,407.299 L 194.039,408.716 L 195.217,410.132 L 196.404,411.547 L 197.599,412.963 L 198.804,414.375 L 200.017,415.785 L 201.239,417.195 L 202.471,418.603 L 203.711,420.005 L 204.96,421.408 L 206.219,422.807 L 207.485,424.2 L 208.761,425.593 L 210.045,426.981 L 211.34,428.365 L 212.643,429.745 L 213.952,431.119 L 215.272,432.489 L 216.601,433.855 L 217.939,435.216 L 219.285,436.571 L 220.64,437.919 L 222.003,439.261 L 223.375,440.599 L 224.756,441.928 L 226.145,443.251 L 227.543,444.567 L 228.949,445.876 L 230.364,447.176 L 231.787,448.469 L 233.22,449.755 L 234.66,451.032 L 235.384,451.667 L 236.109,452.3 L 236.837,452.931 L 237.567,453.559 L 238.299,454.185 L 239.033,454.809 L 239.768,455.431 L 240.508,456.051 L 241.248,456.667 L 241.991,457.281 L 242.736,457.893 L 243.483,458.503 L 244.231,459.109 L 244.983,459.715 L 245.735,460.317 L 246.489,460.916 L 247.248,461.513 L 248.007,462.107 L 248.769,462.697 L 249.532,463.285 L 250.297,463.872 L 251.065,464.455 L 251.835,465.033 L 252.607,465.611 L 253.38,466.187 L 254.157,466.757 L 254.935,467.325 L 255.715,467.891 L 256.496,468.453 L 257.281,469.012 L 258.068,469.568 L 258.856,470.121 L 259.647,470.672 L 260.439,471.219 L 261.233,471.761 L 262.031,472.301 L 262.828,472.839 L 263.629,473.372 L 264.432,473.901 L 265.236,474.428 L 266.044,474.952 L 266.852,475.473 L 267.664,475.989 L 268.477,476.501 L 269.291,477.011 L 270.108,477.517 L 270.928,478.019 L 271.749,478.517 L 272.572,479.013 L 273.397,479.504 L 274.223,479.992 L 275.052,480.476 L 275.885,480.956 L 276.717,481.431 L 277.552,481.904 L 278.391,482.373 L 279.229,482.837 L 280.069,483.297 L 280.913,483.755 L 281.76,484.207 L 282.607,484.655 L 283.456,485.099 L 284.307,485.539 L 285.16,485.975 L 286.015,486.407 L 286.872,486.835 L 287.732,487.259 L 288.593,487.679 L 289.456,488.093 L 290.32,488.503 L 291.189,488.909 L 292.057,489.311 L 292.928,489.708 L 293.801,490.101 L 294.676,490.489 L 295.553,490.873 L 296.433,491.252 L 297.313,491.627 L 298.196,491.997 L 299.081,492.363 L 299.967,492.723 L 300.856,493.079 L 301.747,493.431 L 302.64,493.777 L 303.533,494.119 L 304.431,494.456 L 305.329,494.788 L 306.229,495.115 L 307.132,495.436 L 308.036,495.753 L 308.943,496.065 L 309.851,496.373 L 310.76,496.675 L 311.672,496.971 L 312.587,497.263 L 313.503,497.549 L 314.421,497.831 L 315.34,498.107 L 316.261,498.379 L 317.185,498.643 L 318.109,498.903 L 319.037,499.159 L 319.967,499.408 L 320.897,499.652 L 321.831,499.889 L 322.765,500.124 L 323.703,500.351 L 324.641,500.572 L 325.581,500.789 L 326.524,501 L 327.468,501.204 L 328.415,501.404 L 329.363,501.599 L 330.313,501.785 L 331.264,501.969 L 332.219,502.144 L 333.173,502.316 L 334.132,502.481 L 335.092,502.639 L 336.051,502.792 L 337.015,502.939 L 337.98,503.079 L 338.947,503.215 L 339.912,503.344 Z "/>
			</g>
		</g>
		<path id="dp_path048" fill="none" fill-rule="evenodd" stroke="#d10003" stroke-width="1.33333" stroke-dasharray="8,6.4" d="M 270.035,588.071 L 307,306.519"/>
		<g id="dp_group055">
			<g id="dp_group056">
				<path id="dp_path057" fill="#d10003" fill-rule="evenodd" d="M 279.101,511.328 L 281.084,511.589 L 284.789,514.092 L 281.004,504.519 L 274.875,512.791 Z "/>
				<path id="dp_path058" fill="#d10003" d="M 270.805,589.888 L 281.085,511.589 L 279.101,511.328 L 268.821,589.627 Z "/>
			</g>
		</g>
	</g>
</svg>
